<svg xmlns="http://www.w3.org/2000/svg">
<symbol id="fb" viewBox="0 0 10 18"><g><g><path d="M9.623.003L7.225-.001c-2.695 0-4.436 1.739-4.436 4.43V6.47H.377A.372.372 0 0 0 0 6.838v2.96c0 .203.169.366.377.366H2.79v7.468c0 .203.168.367.377.367h3.146a.372.372 0 0 0 .377-.367v-7.468h2.82a.372.372 0 0 0 .377-.366l.001-2.96c0-.097-.04-.19-.11-.259a.384.384 0 0 0-.267-.108H6.69V4.74c0-.833.203-1.255 1.317-1.255l1.616-.001A.372.372 0 0 0 10 3.118V.369a.372.372 0 0 0-.377-.366z"/></g></g></symbol>
<symbol id="hamburger" viewBox="0 0 50 50"><path fill-rule="evenodd" d="M3 41.2h44V36H3zm0-13.6h44v-5.2H3zM3 8.8V14h44V8.8z"/></symbol>
<symbol id="insta" viewBox="0 0 20 20"><g><g><path d="M20 6.249v7.5a6.25 6.25 0 0 1-6.25 6.25h-7.5A6.25 6.25 0 0 1 0 13.749v-7.5a6.25 6.25 0 0 1 6.25-6.25h7.5A6.25 6.25 0 0 1 20 6.25zm-1.875 0a4.38 4.38 0 0 0-4.375-4.375h-7.5a4.38 4.38 0 0 0-4.375 4.375v7.5a4.38 4.38 0 0 0 4.375 4.375h7.5a4.38 4.38 0 0 0 4.375-4.375zM15 9.999a5 5 0 1 1-10 0 5 5 0 0 1 10 0zm-1.875 0A3.13 3.13 0 0 0 10 6.873 3.13 3.13 0 0 0 6.875 10 3.13 3.13 0 0 0 10 13.124a3.13 3.13 0 0 0 3.125-3.125zm2.25-6.041a.666.666 0 1 1 0 1.332.666.666 0 0 1 0-1.332z"/></g></g></symbol>
<symbol id="logoshort" viewBox="0 0 37.5 25"><title>logoShort</title><g id="&#x421;&#x43B;&#x43E;&#x439;_2" data-name="&#x421;&#x43B;&#x43E;&#x439; 2"><g id="&#x421;&#x43B;&#x43E;&#x439;_1-2" data-name="&#x421;&#x43B;&#x43E;&#x439; 1"><g id="&#x421;&#x43B;&#x43E;&#x439;_1-2-2" data-name="&#x421;&#x43B;&#x43E;&#x439; 1-2"><g id="Shape_2" data-name="Shape 2"><circle class="cls-1" cx="12.5" cy="12.5" r="12.5"/></g><g id="Shape_2_copy" data-name="Shape 2 copy" class="cls-2"><circle class="cls-3" cx="27.25" cy="13.75" r="10.25"/></g></g></g></g></symbol>
<symbol id="twtr" viewBox="0 0 20 16"><g><g><path d="M20 1.893a8.648 8.648 0 0 1-2.363.638A4.026 4.026 0 0 0 19.441.3a8.294 8.294 0 0 1-2.6.977 4.138 4.138 0 0 0-2.995-1.278c-2.27 0-4.097 1.814-4.097 4.038 0 .32.027.628.095.92A11.667 11.667 0 0 1 1.392.736a4.018 4.018 0 0 0-.56 2.04c0 1.399.73 2.638 1.82 3.356A4.098 4.098 0 0 1 .8 5.633v.045c0 1.962 1.421 3.59 3.285 3.966-.334.09-.698.133-1.075.133-.263 0-.528-.015-.776-.069a4.132 4.132 0 0 0 3.83 2.813 8.321 8.321 0 0 1-5.083 1.721c-.336 0-.659-.014-.981-.055A11.674 11.674 0 0 0 6.29 16c7.545 0 11.67-6.154 11.67-11.488 0-.179-.006-.35-.015-.522A8.11 8.11 0 0 0 20 1.893z"/></g></g></symbol>
</svg>