<svg xmlns="http://www.w3.org/2000/svg" viewBox="0 0 190.75 25.08"><g data-name="Слой 2"><g data-name="Слой 1"><path d="M55.36 11.12q-.62 2.38-1.34 4.63T52.61 20h-2.68q-.54-1.24-1.14-2.83t-1.19-3.4Q47 12 46.41 10t-1.16-4.12h3.46q.24 1.13.57 2.44T50 11q.35 1.36.73 2.66t.72 2.34q.41-1.24.8-2.57t.75-2.61q.35-1.32.66-2.58t.55-2.36h2.51Q57 7 57.26 8.24t.63 2.58q.34 1.32.73 2.65t.79 2.53q.35-1.08.73-2.38t.75-2.62q.37-1.36.69-2.67t.57-2.44h3.38Q65 8 64.36 10t-1.19 3.81q-.6 1.81-1.19 3.4T60.82 20h-2.66q-.7-2-1.44-4.25t-1.36-4.63zM67.2 13a8.87 8.87 0 01.55-3.27 6.85 6.85 0 011.48-2.33 6.09 6.09 0 012.1-1.4 6.52 6.52 0 012.43-.47 5.82 5.82 0 014.55 1.81 7.83 7.83 0 011.63 5.4v1.22h-9.36a3.72 3.72 0 001.2 2.63 4.57 4.57 0 003.09.93A10.13 10.13 0 0077 17.3a8.92 8.92 0 001.55-.46l.45 2.67a5.1 5.1 0 01-.74.28 10.65 10.65 0 01-1.08.27q-.61.12-1.31.2a12.32 12.32 0 01-1.43.08 8.68 8.68 0 01-3.24-.55 6 6 0 01-2.2-1.53 6.31 6.31 0 01-1.32-2.32A9.48 9.48 0 0167.2 13zm9.48-1.46a4.31 4.31 0 00-.19-1.28 3.1 3.1 0 00-.55-1.05 2.62 2.62 0 00-.89-.7 2.84 2.84 0 00-1.26-.26 2.92 2.92 0 00-1.32.28 3 3 0 00-1 .74 3.41 3.41 0 00-.61 1.05 5.72 5.72 0 00-.3 1.21zm18.38 7.03q0 3.38-1.71 4.94t-5.25 1.57a14.59 14.59 0 01-2.52-.22 14.19 14.19 0 01-2.23-.57l.59-2.78a10.12 10.12 0 001.9.57 11.66 11.66 0 002.31.22 4 4 0 002.85-.81 3.2 3.2 0 00.84-2.4v-.54a8.46 8.46 0 01-1.28.49 6.25 6.25 0 01-1.82.24 6.81 6.81 0 01-2.47-.43 5.17 5.17 0 01-1.92-1.27 5.79 5.79 0 01-1.24-2.09 8.67 8.67 0 01-.45-2.9 8.22 8.22 0 01.47-2.83 6.07 6.07 0 011.38-2.21 6.3 6.3 0 012.2-1.43 8 8 0 012.94-.51 18 18 0 013 .24q1.43.24 2.43.51zm-9.1-6a4.31 4.31 0 00.9 3 3.06 3.06 0 002.34 1 4.9 4.9 0 001.47-.22 4.21 4.21 0 001.12-.51V8.53q-.35-.08-.86-.15a10.26 10.26 0 00-1.3-.07 3.3 3.3 0 00-2.73 1.17 4.78 4.78 0 00-.9 3.1zm24.79-6.69a102.85 102.85 0 01-5.07 14.58 14.73 14.73 0 01-1.11 2.08 6.17 6.17 0 01-1.26 1.46 4.54 4.54 0 01-1.57.82 7.1 7.1 0 01-2 .26 7 7 0 01-1.5-.16 5 5 0 01-1.12-.35l.59-2.62a5.31 5.31 0 001.93.38 3 3 0 002-.61 5 5 0 001.26-1.88q-1.55-3-3-6.48a71.17 71.17 0 01-2.53-7.45h3.48q.27 1.13.66 2.46t.85 2.69q.46 1.36 1 2.71t1 2.51q.86-2.4 1.61-5.12t1.37-5.25z" fill="#333"/><path d="M120 18.82a4.05 4.05 0 01-.1.92 1.9 1.9 0 01-.35.74 1.61 1.61 0 01-.65.49 2.56 2.56 0 01-1 .18 3.13 3.13 0 01-.66-.07 3.38 3.38 0 01-.53-.16 2.14 2.14 0 01-.38-.19 1.39 1.39 0 01-.24-.18l.32-.55.22.17a1.87 1.87 0 00.32.18 2.14 2.14 0 00.88.18 1.45 1.45 0 001.13-.41 2.06 2.06 0 00.37-1.38v-4.67h.67zm8-1.29a4.39 4.39 0 01-.26 1.57 3.28 3.28 0 01-.71 1.14 2.93 2.93 0 01-1 .68 3.51 3.51 0 01-2.5 0 2.92 2.92 0 01-1-.68 3.26 3.26 0 01-.71-1.14 4.86 4.86 0 010-3.13 3.27 3.27 0 01.71-1.13 2.91 2.91 0 011-.68 3.51 3.51 0 012.5 0 2.91 2.91 0 011 .68 3.29 3.29 0 01.71 1.13 4.35 4.35 0 01.26 1.56zm-.72 0a4.05 4.05 0 00-.18-1.25 2.77 2.77 0 00-.51-.95 2.19 2.19 0 00-.79-.59 2.76 2.76 0 00-2.09 0 2.18 2.18 0 00-.79.59 2.75 2.75 0 00-.51.95 4.47 4.47 0 000 2.51 2.76 2.76 0 00.51.95 2.22 2.22 0 00.79.6 2.71 2.71 0 002.09 0 2.23 2.23 0 00.79-.6 2.78 2.78 0 00.51-.95 4.06 4.06 0 00.17-1.26zm8.45 0a4.37 4.37 0 01-.26 1.57 3.26 3.26 0 01-.71 1.14 2.92 2.92 0 01-1 .68 3.51 3.51 0 01-2.5 0 2.91 2.91 0 01-1-.68 3.26 3.26 0 01-.71-1.14 4.84 4.84 0 010-3.13 3.27 3.27 0 01.71-1.13 2.89 2.89 0 011-.68 3.51 3.51 0 012.5 0 2.91 2.91 0 011 .68 3.27 3.27 0 01.71 1.13 4.33 4.33 0 01.26 1.56zm-.72 0a4.05 4.05 0 00-.18-1.25 2.77 2.77 0 00-.51-.95 2.19 2.19 0 00-.8-.59 2.76 2.76 0 00-2.09 0 2.19 2.19 0 00-.79.59 2.77 2.77 0 00-.51.95 4.47 4.47 0 000 2.51 2.78 2.78 0 00.51.95 2.23 2.23 0 00.79.6 2.71 2.71 0 002.09 0 2.23 2.23 0 00.8-.6 2.78 2.78 0 00.51-.95 4.06 4.06 0 00.17-1.26zm5.36 2.47q-.1-.25-.29-.66l-.42-.89-.47-1-.46-1-.39-.79-.25-.48q-.13 1.25-.21 2.71t-.13 3.11h-.67q.09-1.89.21-3.62t.28-3.31h.6q.3.5.64 1.15t.68 1.36l.65 1.39q.31.69.56 1.24.24-.55.56-1.24l.65-1.39q.34-.7.68-1.36t.64-1.15h.57q.17 1.58.29 3.31t.2 3.62h-.69q-.06-1.61-.13-3.08t-.21-2.71l-.25.48-.39.79-.46 1-.47 1-.42.89c-.12.27-.22.49-.29.66zm9.47.41V21h-3.94v-6.93h.68v6.34zm6.03.59c-.13-.34-.25-.67-.36-1l-.32-.92h-3.39q-.17.45-.34.92l-.35 1h-.71q.4-1.08.75-2t.69-1.77q.34-.83.67-1.6t.7-1.54h.6q.37.77.7 1.54t.67 1.6q.34.83.69 1.77t.77 2zm-2.38-6.15q-.38.86-.73 1.75t-.76 1.92h3q-.38-1-.75-1.92t-.77-1.75zm10.8-.78v.59h-2.22V21h-.68v-6.34h-2.22v-.59zm5.52 0h.68V21h-.68v-3.33H166V21h-.68v-6.93h.68v3h3.76zm2.48 6.93v-6.93h4v.59H173v2.41h3v.58h-3v2.76h3.58V21zm8.71-1q-.1-.25-.29-.66l-.42-.89-.47-1-.46-1-.39-.79-.25-.48q-.13 1.25-.2 2.71t-.18 3.11h-.67q.09-1.89.21-3.62t.29-3.31h.6q.3.5.64 1.15t.68 1.36l.65 1.39q.31.69.56 1.24.24-.55.56-1.24l.65-1.39q.34-.7.68-1.36t.64-1.15h.57q.17 1.58.29 3.31t.21 3.62h-.69q-.06-1.61-.13-3.08t-.21-2.71l-.25.48-.39.79-.46 1-.47 1-.42.89q-.19.41-.29.66zm5.49 1v-6.93h4v.59h-3.32v2.41h3v.58h-3v2.76h3.58V21z" fill="#888"/><circle cx="12.5" cy="12.5" r="12.5" fill="#1d9d73" data-name="Shape 2"/><circle cx="27.25" cy="13.75" r="10.25" fill="#6dc77a" data-name="Shape 2 copy" opacity=".6"/></g></g></svg>